<?xml version="1.0" standalone="no"?>
<!DOCTYPE svg PUBLIC "-//W3C//DTD SVG 20010904//EN"
 "http://www.w3.org/TR/2001/REC-SVG-20010904/DTD/svg10.dtd">
<svg version="1.0" xmlns="http://www.w3.org/2000/svg"
 width="988.000000pt" height="1280.000000pt" viewBox="0 0 988.000000 1280.000000"
 preserveAspectRatio="xMidYMid meet">
<g transform="translate(0.000000,1280.000000) scale(0.100000,-0.100000)"
fill="rgb(105, 188, 186)" stroke="none">
<path d="M4851 12184 c-83 -17 -137 -42 -231 -109 -36 -25 -86 -59 -111 -75
-25 -16 -54 -45 -65 -65 -10 -19 -25 -35 -34 -35 -34 -1 -94 -51 -150 -126
-33 -43 -60 -85 -60 -91 0 -7 -13 -25 -29 -39 -16 -14 -42 -52 -58 -83 -27
-55 -28 -60 -28 -226 0 -181 20 -530 35 -630 10 -58 53 -180 71 -199 13 -15
11 -62 -7 -122 -8 -30 -14 -60 -11 -67 6 -15 28 63 36 128 6 47 8 50 35 50
l29 0 -2 -100 c-1 -93 0 -99 15 -80 12 16 15 37 12 97 -3 43 -1 83 3 90 4 6 5
17 1 23 -4 5 -15 48 -24 95 l-17 85 5 -97 6 -98 -25 0 c-18 0 -27 7 -31 25 -6
24 6 187 24 325 l9 75 -49 97 c-49 95 -80 189 -80 238 1 15 12 -8 29 -55 26
-74 86 -210 131 -295 10 -19 28 -69 40 -110 13 -41 36 -102 52 -135 20 -40 28
-70 25 -90 -23 -150 -50 -281 -62 -305 -10 -20 -24 -29 -52 -34 -21 -4 -74
-24 -118 -46 -44 -21 -98 -41 -120 -45 -202 -33 -352 -81 -455 -148 -108 -68
-290 -277 -276 -314 3 -8 2 -12 -3 -9 -12 8 -30 -46 -37 -113 -5 -40 -14 -66
-35 -93 -34 -43 -36 -53 -9 -38 11 6 20 8 20 5 0 -3 -24 -17 -52 -30 -57 -26
-50 -32 14 -13 54 16 98 73 98 125 0 80 54 207 124 291 113 137 272 221 460
242 50 6 104 13 120 15 l29 5 -34 -32 c-19 -18 -95 -73 -169 -122 -255 -169
-363 -313 -358 -476 1 -30 2 -35 4 -15 9 76 29 145 56 196 53 102 200 229 353
306 39 20 84 47 101 62 63 53 73 60 120 80 52 24 72 21 27 -3 -46 -25 -16 -18
35 8 26 13 71 43 101 65 75 57 88 55 50 -6 -12 -18 -45 -49 -73 -67 -29 -18
-86 -62 -127 -97 -41 -35 -119 -100 -173 -144 -94 -75 -219 -209 -278 -296
-14 -22 -55 -58 -90 -82 -137 -91 -177 -159 -188 -316 l-5 -84 -55 -18 c-30
-9 -102 -31 -160 -49 -227 -70 -272 -117 -300 -314 -5 -32 -17 -68 -27 -79
-16 -19 -16 -20 0 -8 16 12 17 10 17 -29 0 -38 -6 -48 -65 -109 -69 -72 -108
-91 -183 -91 -57 0 -191 -69 -236 -121 -55 -65 -117 -212 -116 -278 l1 -26 12
23 c7 12 16 20 20 16 3 -4 11 6 17 22 24 63 93 172 120 187 42 25 57 21 29 -9
l-24 -26 40 21 c38 20 74 30 47 12 -9 -5 10 -10 50 -14 35 -3 100 -11 146 -18
83 -13 81 -13 222 19 23 5 24 4 11 -12 -23 -28 -72 -49 -131 -56 l-55 -7 54
-2 c29 0 71 4 92 11 53 15 157 104 227 191 113 141 129 154 225 188 92 31 238
71 243 66 2 -2 -1 -41 -6 -88 -5 -46 -10 -105 -10 -132 0 -46 -3 -51 -88 -145
-49 -53 -148 -151 -221 -217 -102 -93 -137 -131 -156 -172 -32 -66 -101 -150
-231 -278 -56 -55 -114 -120 -129 -145 -15 -25 -47 -66 -71 -93 -23 -26 -56
-71 -73 -100 -17 -28 -49 -81 -71 -116 -30 -48 -38 -67 -29 -77 7 -9 7 -18 0
-33 -12 -22 8 -51 35 -51 21 0 119 107 169 183 34 52 26 19 -14 -59 -46 -89
-50 -110 -21 -119 31 -10 55 10 116 97 83 120 143 187 179 202 17 8 47 27 66
43 36 32 93 47 122 31 21 -11 22 -45 2 -118 -17 -64 -11 -116 16 -133 16 -10
19 -25 19 -102 0 -68 -4 -96 -16 -114 -27 -37 -7 -161 25 -161 8 0 10 15 15
110 4 94 26 252 36 263 12 14 0 -165 -20 -318 -36 -261 -43 -363 -37 -549 10
-301 57 -539 188 -945 39 -119 86 -272 105 -341 19 -69 43 -142 54 -163 11
-20 30 -56 43 -80 19 -37 22 -56 21 -157 -1 -79 -8 -146 -24 -215 -36 -162
-38 -394 -6 -675 46 -397 54 -491 61 -730 6 -216 5 -244 -15 -344 -12 -60 -31
-128 -42 -150 -12 -23 -70 -110 -130 -194 -92 -128 -128 -169 -225 -253 -111
-99 -127 -119 -143 -186 -7 -28 -3 -38 23 -68 20 -24 38 -35 51 -33 12 1 32
-5 46 -15 35 -24 120 -23 153 3 14 11 39 20 55 20 65 0 134 44 184 118 50 74
128 162 158 177 15 8 58 22 96 31 95 23 167 58 203 100 40 45 41 100 5 233
-38 137 -31 229 41 591 73 368 107 500 156 617 57 133 72 230 66 423 -2 85
-13 209 -22 275 l-18 120 29 80 28 80 3 280 c2 338 5 367 49 570 35 158 81
428 109 637 9 61 14 177 14 273 -1 106 2 170 9 177 15 15 20 -13 27 -157 13
-257 76 -513 230 -930 35 -93 83 -219 108 -280 64 -157 73 -185 111 -372 19
-93 53 -238 76 -323 22 -85 52 -226 65 -312 28 -177 34 -196 110 -323 62 -105
93 -199 140 -422 69 -325 97 -414 195 -623 40 -85 86 -203 110 -285 23 -77 70
-228 105 -335 111 -340 142 -474 155 -670 5 -75 16 -174 24 -221 32 -167 23
-352 -21 -449 -38 -83 -43 -116 -27 -169 7 -25 14 -69 14 -98 0 -45 4 -54 32
-78 27 -23 39 -26 75 -22 45 5 83 30 83 54 0 7 12 -1 28 -18 22 -25 32 -29 53
-24 15 4 32 18 38 31 9 21 14 23 30 14 21 -11 64 0 76 19 3 6 19 11 35 11 16
0 36 7 45 17 9 9 30 17 47 18 40 4 47 13 58 71 5 27 14 73 21 102 11 48 9 58
-14 125 -14 39 -29 101 -33 136 -5 48 -17 84 -47 140 l-41 76 2 115 c2 85 -1
127 -13 160 -50 140 -56 191 -65 570 -5 201 -14 417 -20 480 -6 63 -15 237
-20 385 -13 384 -46 518 -219 882 -61 127 -97 217 -107 265 -13 58 -16 153
-17 463 l-2 390 33 245 c25 180 35 299 39 450 6 230 -2 348 -47 635 -56 357
-60 376 -146 630 -82 243 -84 253 -84 343 0 101 -21 203 -65 307 -26 63 -30
85 -17 85 9 0 82 -161 82 -180 0 -6 4 -9 9 -6 5 4 7 -2 4 -13 -3 -10 0 -22 6
-25 7 -5 9 0 5 11 -5 15 -4 15 4 3 6 -8 9 -18 6 -22 -3 -4 13 -38 36 -75 22
-37 40 -71 40 -75 0 -5 11 -33 24 -61 14 -29 30 -65 35 -80 6 -16 15 -26 20
-22 14 8 25 -58 18 -108 l-5 -42 14 30 c7 17 13 55 14 85 0 31 5 61 11 67 8 8
5 31 -11 85 -32 105 -54 143 -131 232 -38 44 -69 84 -68 90 0 6 10 -2 22 -18
12 -16 46 -56 75 -90 61 -69 113 -157 143 -242 22 -66 28 -217 9 -257 -10 -19
-9 -19 9 3 11 14 28 55 38 93 22 83 29 69 39 -75 6 -82 9 -97 16 -73 8 29 3
174 -8 260 -8 54 12 35 37 -37 l19 -53 -7 50 c-3 28 -19 76 -34 107 -26 51
-29 68 -29 149 0 51 2 90 5 88 2 -3 10 -40 16 -83 6 -43 15 -73 19 -66 13 21
44 -147 54 -290 2 -30 2 6 1 80 -4 140 -13 188 -79 401 -24 79 -26 119 -6 119
4 0 8 6 7 13 -1 46 3 50 24 23 32 -40 34 -25 5 36 -30 63 -44 142 -28 152 7 4
15 -7 21 -26 8 -28 9 -21 10 45 1 84 -7 106 -58 171 -42 52 -39 61 10 34 62
-34 129 -109 171 -191 20 -40 37 -65 38 -56 1 36 -44 140 -78 180 -20 24 -30
39 -22 33 80 -56 120 -90 120 -102 0 -7 4 -11 9 -7 6 3 16 -5 22 -17 l13 -23
7 25 c4 14 7 44 8 67 1 39 -3 45 -41 74 -24 17 -65 42 -91 55 -43 22 -52 33
-85 101 -57 121 -56 158 12 355 82 239 131 530 122 718 l-6 115 25 -63 25 -62
-21 -103 c-11 -56 -23 -151 -25 -212 -5 -86 -12 -129 -35 -198 -30 -88 -30
-89 -19 -203 6 -63 17 -133 25 -157 l13 -42 1 54 c1 44 4 52 17 47 13 -5 14
-1 9 24 -7 30 8 43 19 18 3 -7 4 -4 1 8 -3 11 6 47 21 80 20 44 28 86 35 169
5 61 19 171 30 245 l20 136 -25 124 c-14 69 -35 151 -46 182 -25 71 -26 178
-4 398 15 152 14 165 -6 326 -29 237 -37 268 -83 346 -75 125 -99 149 -302
304 -89 68 -101 80 -111 119 -19 74 -56 156 -110 245 -28 47 -66 112 -84 145
-18 33 -52 94 -76 135 -26 46 -51 108 -64 160 -29 117 -64 210 -118 310 -172
323 -361 445 -611 394z m-681 -578 c0 -2 -8 -10 -17 -17 -16 -13 -17 -12 -4 4
13 16 21 21 21 13z m-64 -233 c0 -138 15 -216 57 -300 13 -27 32 -81 42 -122
18 -75 18 -97 -4 -361 l-6 -75 -22 55 c-36 90 -53 173 -53 261 0 46 -7 149
-15 229 -19 194 -20 440 -1 440 1 0 2 -57 2 -127z m82 -8 l0 -50 -14 65 c-7
36 -11 76 -7 90 6 23 7 21 14 -15 4 -22 8 -62 7 -90z m171 -435 c0 -18 -4 -12
-15 20 -17 56 -17 62 1 30 8 -14 14 -36 14 -50z m1651 -305 c7 -8 8 -15 2 -15
-5 0 -15 7 -22 15 -7 8 -8 15 -2 15 5 0 15 -7 22 -15z m-1477 -147 c-11 -22
-11 -22 -27 14 -23 54 -20 66 11 36 22 -23 25 -30 16 -50z m-79 20 c10 -38 7
-138 -5 -161 -29 -56 -99 -104 -86 -59 2 9 16 57 31 106 14 48 26 99 26 112 0
31 26 32 34 2z m176 -69 c0 -6 -4 -7 -10 -4 -5 3 -10 11 -10 16 0 6 5 7 10 4
6 -3 10 -11 10 -16z m-6 -65 c-6 -19 -96 -94 -113 -94 -13 0 5 52 41 117 l30
53 23 -29 c15 -17 22 -35 19 -47z m1722 -99 c9 -24 14 -49 12 -55 -2 -7 -16
18 -30 55 -16 40 -21 62 -13 55 8 -6 21 -31 31 -55z m-1863 -59 c-12 -26 -25
-37 -53 -44 l-36 -9 40 43 c51 54 73 58 49 10z m-44 -106 c-11 -36 -31 -58
-126 -139 -187 -158 -341 -272 -477 -354 -71 -43 -131 -76 -133 -74 -5 6 86
123 147 190 30 32 92 88 139 125 47 36 115 91 151 122 61 53 100 80 116 80 3
0 0 -8 -7 -17 -8 -9 6 -3 31 13 66 45 164 103 168 99 2 -2 -2 -22 -9 -45z
m1938 18 c-3 -8 -6 -5 -6 6 -1 11 2 17 5 13 3 -3 4 -12 1 -19z m9 -499 c-9
-37 -16 -87 -17 -111 -1 -38 -2 -40 -9 -16 -5 16 -2 57 7 105 7 43 17 107 21
143 l7 65 3 -59 c2 -32 -4 -89 -12 -127z m-3037 -703 c-2 -2 -51 -9 -109 -16
-170 -18 -236 -51 -277 -138 -13 -29 -22 -39 -22 -27 0 32 31 82 68 109 38 28
77 43 161 62 52 11 188 19 179 10z m385 -115 c-15 -25 -25 -30 -73 -35 -215
-21 -234 -20 -193 17 24 22 96 35 146 26 37 -6 101 2 113 15 18 17 22 2 7 -23z
m2253 -23 c-3 -8 -6 -5 -6 6 -1 11 2 17 5 13 3 -3 4 -12 1 -19z m-2592 -8 c0
-20 -25 -23 -113 -15 -111 10 -67 32 63 30 37 0 50 -4 50 -15z m-38 -70 c14
-9 3 -10 -52 -6 -38 3 -105 6 -147 6 -52 0 -78 4 -78 12 0 15 252 4 277 -12z
m-420 -77 c-3 -10 -5 -2 -5 17 0 19 2 27 5 18 2 -10 2 -26 0 -35z m2969 -64
c-9 -35 -22 -84 -30 -109 -13 -40 -15 -42 -15 -16 -1 29 49 199 56 192 2 -2
-3 -32 -11 -67z m-2349 45 c-3 -3 -12 -4 -19 -1 -8 3 -5 6 6 6 11 1 17 -2 13
-5z m-38 -8 c-2 -3 -66 -12 -141 -21 -163 -18 -212 -37 -276 -104 l-47 -49 1
34 c4 71 89 113 258 126 67 5 126 10 131 13 14 5 79 6 74 1z m2886 -106 c-4
-23 -9 -39 -12 -36 -3 2 -2 23 2 46 4 23 9 39 12 36 3 -2 2 -23 -2 -46z m-519
-107 c-8 -15 -15 -25 -16 -21 0 12 23 58 27 54 3 -2 -2 -17 -11 -33z m-240
-192 c-2 -66 -7 -125 -11 -130 -3 -6 -1 -11 4 -11 6 0 11 -8 12 -17 1 -13 4
-10 10 7 6 18 7 9 4 -30 -3 -30 -5 -66 -5 -80 -1 -22 -3 -21 -22 14 -21 41
-26 136 -13 266 15 142 26 132 21 -19z m-2766 45 c0 -2 -8 -10 -17 -17 -16
-13 -17 -12 -4 4 13 16 21 21 21 13z m2717 -118 c-2 -13 -4 -5 -4 17 -1 22 1
32 4 23 2 -10 2 -28 0 -40z m725 -184 c72 -44 85 -56 98 -92 10 -30 11 -45 3
-53 -7 -7 -19 2 -39 34 -20 31 -54 60 -110 96 -71 45 -84 57 -103 101 -12 27
-24 71 -27 97 l-5 48 50 -90 c48 -87 52 -92 133 -141z m-449 131 c7 -95 -6
-129 -22 -57 -12 59 -14 102 -5 127 11 29 21 2 27 -70z m267 -98 c0 -21 -25 3
-37 34 l-13 34 25 -30 c14 -16 25 -34 25 -38z m-110 -133 c34 -46 60 -89 58
-94 -2 -6 -26 13 -54 42 -38 40 -59 73 -82 135 -37 96 -42 132 -7 55 13 -29
52 -91 85 -138z m-106 -249 c3 -60 3 -105 1 -100 -8 17 -21 225 -14 217 4 -4
9 -56 13 -117z m-90 11 c4 -43 10 -93 13 -109 5 -22 3 -28 -6 -23 -29 18 -45
99 -35 180 8 75 19 56 28 -48z m266 33 c13 -24 20 -54 18 -72 -3 -29 -5 -27
-22 28 -10 33 -21 66 -23 73 -11 29 8 9 27 -29z m-2688 -89 l-19 -45 -7 48
c-6 40 -4 53 16 85 l23 37 3 -40 c2 -24 -5 -59 -16 -85z m2634 -51 c25 -28 54
-127 56 -189 2 -68 -6 -82 -27 -54 -34 44 -105 283 -104 349 0 27 3 24 31 -30
16 -33 37 -67 44 -76z m-377 41 c1 -13 0 -13 -9 0 -5 8 -9 26 -9 40 l1 25 8
-25 c4 -14 8 -32 9 -40z m21 -55 c0 -5 -5 -3 -10 5 -5 8 -10 20 -10 25 0 6 5
3 10 -5 5 -8 10 -19 10 -25z m204 -21 c4 -19 10 -43 13 -52 5 -15 3 -14 -15 2
-16 13 -22 31 -22 58 0 47 15 42 24 -8z"/>
<path d="M4322 10053 c-30 -44 -34 -53 -24 -53 6 0 19 18 31 40 24 46 21 52
-7 13z"/>
<path d="M3797 9956 c-54 -25 -114 -57 -133 -73 -20 -15 -51 -40 -70 -55 -50
-38 -123 -112 -98 -100 11 6 47 36 80 67 77 73 140 114 244 160 47 20 87 39
89 41 13 13 -25 -1 -112 -40z"/>
<path d="M6196 7585 c8 -37 14 -45 14 -19 0 10 -5 26 -10 34 -8 11 -9 7 -4
-15z"/>
</g>
</svg>
