<?xml version="1.0" standalone="no"?>
<!DOCTYPE svg PUBLIC "-//W3C//DTD SVG 20010904//EN"
 "http://www.w3.org/TR/2001/REC-SVG-20010904/DTD/svg10.dtd">
<svg version="1.0" xmlns="http://www.w3.org/2000/svg"
 width="989.000000pt" height="1280.000000pt" viewBox="0 0 989.000000 1280.000000"
 preserveAspectRatio="xMidYMid meet">
<g transform="translate(0.000000,1280.000000) scale(0.100000,-0.100000)"
fill="rgb(105, 188, 186)" stroke="none">
<path d="M5010 12446 c-74 -22 -182 -73 -130 -61 17 4 12 -1 -15 -16 -122 -67
-255 -204 -421 -436 -31 -42 -71 -92 -90 -110 -35 -33 -51 -42 -39 -23 10 16
-127 -79 -163 -113 -30 -29 -87 -126 -78 -134 2 -2 19 4 37 13 53 27 68 34 73
34 3 0 -20 -53 -50 -117 -60 -128 -83 -209 -84 -293 0 -30 -7 -91 -16 -135
-29 -156 -29 -179 -3 -203 25 -24 25 -23 -13 -39 -35 -16 -55 -51 -33 -59 9
-4 23 0 33 8 36 31 45 29 12 -2 -31 -28 -32 -30 -7 -15 49 29 39 11 -33 -59
-38 -38 -75 -83 -81 -101 -8 -20 -28 -42 -58 -61 -69 -43 -126 -99 -214 -209
-100 -124 -166 -226 -247 -378 -62 -118 -62 -118 -84 -100 -11 10 -26 24 -33
31 -9 11 -15 8 -29 -20 -31 -61 -97 -152 -159 -219 -33 -36 -96 -105 -139
-154 -44 -48 -98 -101 -120 -117 -72 -52 -186 -161 -239 -228 -28 -36 -65 -81
-83 -100 -18 -19 -77 -100 -132 -180 -105 -151 -121 -173 -213 -286 -30 -38
-79 -100 -109 -139 -29 -38 -82 -102 -117 -141 -57 -65 -77 -94 -54 -80 4 3
17 -4 27 -15 17 -19 17 -21 -35 -73 l-52 -53 -137 -6 c-75 -4 -186 -16 -247
-28 -132 -24 -107 -23 -240 -14 -80 5 -129 14 -179 32 -71 27 -85 24 -86 -18
0 -42 121 -111 229 -130 l61 -11 -69 -64 c-38 -35 -92 -83 -119 -107 -47 -39
-49 -43 -35 -59 24 -27 48 -30 88 -13 23 9 51 13 74 9 24 -4 54 1 90 15 39 14
59 17 72 10 10 -5 29 -7 42 -3 19 4 10 -9 -39 -60 -37 -37 -62 -71 -59 -78 10
-25 62 -49 92 -42 40 10 97 40 114 60 7 9 76 47 151 85 l138 68 46 -16 c72
-24 133 -14 196 34 29 22 82 60 118 85 36 25 74 55 84 67 11 11 29 21 42 21
18 0 21 -4 16 -22 -5 -22 -4 -22 33 7 22 16 110 99 196 185 204 202 263 249
444 350 205 114 312 191 430 309 55 56 102 101 105 101 4 0 14 -16 24 -37 39
-82 135 -181 235 -243 12 -7 -1 -25 -60 -88 -88 -91 -120 -152 -174 -328 -58
-189 -92 -283 -192 -534 -131 -324 -135 -345 -132 -700 1 -161 -3 -326 -9
-380 -16 -130 -15 -271 3 -474 24 -276 65 -475 153 -757 64 -203 64 -191 -9
-311 -34 -57 -102 -180 -151 -275 -80 -157 -88 -177 -88 -230 -1 -110 -11
-135 -87 -220 -121 -134 -164 -254 -186 -523 -14 -163 -6 -474 17 -610 42
-262 49 -427 38 -965 -11 -545 -16 -609 -83 -1068 -18 -116 -35 -239 -39 -272
-4 -33 -33 -159 -64 -279 -31 -120 -56 -229 -56 -241 0 -54 106 -103 244 -112
l91 -6 60 52 c61 51 70 55 180 67 46 5 71 14 107 40 29 22 45 40 42 49 -6 14
23 25 104 41 18 4 34 10 37 14 2 4 -2 38 -10 76 -23 109 -24 106 53 133 37 13
80 35 95 48 16 12 41 26 55 29 15 3 34 9 43 14 8 4 28 6 43 3 23 -5 28 -1 38
25 12 30 31 42 77 46 14 1 26 7 29 14 5 17 42 15 42 -3 0 -7 -8 -19 -17 -24
-17 -10 -17 -10 -1 -11 19 0 38 28 31 48 -4 9 1 10 21 2 22 -8 28 -6 38 10 7
11 18 20 25 20 7 0 13 5 13 10 0 6 7 10 16 10 11 0 14 6 9 23 -6 20 -5 21 6 3
10 -16 9 -22 -7 -33 -10 -7 -14 -13 -8 -13 5 0 18 7 28 15 29 22 55 19 49 -4
-4 -15 0 -19 13 -17 10 2 22 14 25 27 4 13 7 18 8 12 1 -7 6 -13 11 -13 6 0
10 6 10 13 0 6 8 21 17 32 13 16 15 17 10 3 -8 -24 23 -24 54 0 13 10 38 17
55 17 21 -1 30 3 27 11 -3 8 6 11 29 9 18 -2 33 -4 33 -5 0 -1 12 -4 27 -6 22
-4 26 -1 22 11 -3 8 -11 12 -18 8 -6 -4 -4 1 4 12 13 15 15 16 18 2 4 -22 25
-27 47 -11 10 8 13 14 7 14 -7 0 -12 4 -12 8 0 5 16 9 36 10 46 2 76 11 69 22
-3 4 1 8 8 7 38 -1 56 5 60 21 4 16 5 16 6 0 1 -19 26 -24 36 -8 3 6 -1 7 -9
4 -9 -3 -16 -2 -16 4 0 16 26 22 40 9 10 -10 10 -7 1 11 -7 13 -8 22 -2 22 5
0 12 10 14 23 2 12 3 8 1 -10 -3 -37 32 -88 41 -59 17 52 16 52 26 29 11 -31
49 -30 83 2 20 18 34 23 52 19 14 -4 24 -2 24 5 0 6 -15 11 -32 12 -31 0 -32
1 -10 11 12 6 22 19 22 30 0 10 4 18 10 18 5 0 7 -7 4 -15 -4 -10 0 -15 14
-15 15 0 21 -9 26 -33 13 -69 88 -103 159 -74 27 12 39 24 46 49 7 25 9 27 10
11 2 -49 86 -70 105 -27 8 18 16 21 46 17 25 -4 40 0 49 11 7 9 22 16 33 16
11 0 32 6 46 14 15 8 39 17 54 20 22 5 30 15 39 48 6 23 8 54 5 70 -5 27 6 38
19 18 11 -17 47 -11 52 9 3 10 17 21 31 24 15 3 35 9 44 12 12 5 17 2 17 -12
0 -10 4 -38 10 -63 5 -25 13 -93 17 -152 l7 -107 28 21 c15 11 30 30 33 42 4
11 12 29 20 39 11 15 18 16 39 6 21 -9 30 -8 51 7 23 17 25 26 26 87 0 73 15
102 45 91 10 -4 21 -1 26 7 7 11 9 10 9 -4 0 -10 5 -15 11 -12 6 4 8 13 6 19
-3 7 1 13 9 13 8 0 13 -6 10 -14 -3 -7 -1 -13 5 -13 5 0 12 6 15 14 3 8 14 12
27 9 18 -4 19 -3 7 6 -12 8 -12 13 -2 23 10 10 14 10 22 -2 5 -8 6 -18 3 -24
-7 -10 7 -3 50 26 15 11 27 14 27 8 0 -7 5 -6 14 2 8 7 11 18 8 23 -3 6 6 0
20 -12 34 -32 72 -30 99 6 19 26 25 28 73 25 33 -3 46 -1 37 5 -11 7 -10 10 5
13 10 3 27 -2 37 -11 16 -13 19 -13 27 -1 7 11 10 12 10 2 0 -7 5 -10 10 -7 8
5 8 11 0 20 -8 9 -4 11 16 7 19 -3 25 -1 20 7 -4 6 -2 11 4 11 6 0 8 6 4 13
-6 10 -4 10 7 0 7 -7 25 -13 40 -13 22 0 26 4 22 20 -3 11 0 20 6 20 6 0 11
-4 11 -10 0 -5 10 -8 22 -7 22 4 37 30 33 59 -2 10 2 15 10 11 8 -2 11 -12 9
-21 -5 -15 -4 -15 6 1 6 9 18 17 25 17 8 0 15 5 15 11 0 5 -4 7 -10 4 -12 -8
-13 5 -1 24 6 9 11 10 15 2 12 -19 26 -12 37 16 6 16 13 23 17 17 9 -14 42
-14 43 0 5 53 -19 145 -88 334 -64 177 -119 389 -159 622 -25 146 -43 721 -32
1019 6 161 5 303 -2 415 -40 642 -38 872 10 1126 17 91 37 192 45 225 38 153
117 569 139 735 31 240 51 592 43 784 -4 83 -20 270 -37 416 -26 234 -34 279
-69 385 -66 205 -150 317 -301 405 -113 66 -218 176 -270 283 -43 89 -69 117
-168 181 -33 20 -42 32 -37 44 41 101 56 155 62 218 3 41 8 74 10 74 3 0 19
-14 36 -32 18 -17 50 -43 72 -57 88 -57 216 -161 335 -273 217 -202 303 -263
419 -293 176 -45 325 -35 429 30 79 48 102 76 158 188 25 49 67 117 93 150
109 140 204 312 263 477 28 82 68 253 68 295 0 32 6 44 41 73 22 19 62 67 88
106 27 39 66 87 86 106 20 19 47 56 60 81 23 45 45 63 162 134 75 45 90 61 95
100 3 27 0 30 -24 28 -24 -1 -28 2 -28 24 0 25 -1 25 -52 19 -29 -4 -64 -10
-78 -13 -22 -5 -21 -2 10 20 81 59 88 67 92 102 2 20 -1 40 -6 44 -9 8 -98
-16 -258 -68 -26 -9 -39 1 -19 14 17 10 71 111 71 132 0 26 -23 73 -36 73 -6
0 -36 -29 -68 -65 -61 -69 -119 -117 -226 -189 -73 -48 -145 -123 -186 -194
-30 -52 -158 -250 -174 -269 -6 -7 -19 -13 -29 -13 -19 0 -55 -48 -99 -130
-25 -47 -164 -234 -230 -310 l-39 -44 -37 28 c-41 31 -195 207 -243 277 -69
101 -83 128 -70 135 6 4 9 4 5 -1 -4 -4 8 -23 27 -42 19 -19 35 -38 35 -43 0
-6 4 -10 8 -10 10 0 28 53 37 106 8 51 -33 242 -70 321 -14 30 -25 64 -25 74
0 11 20 54 44 97 24 42 54 108 67 145 15 46 25 64 30 55 13 -20 11 23 -3 62
-10 30 -12 32 -19 14 -6 -15 -8 -12 -8 15 -1 33 -1 33 24 17 13 -9 30 -16 37
-16 18 0 -69 86 -122 120 -25 16 -96 83 -158 149 -133 142 -248 224 -360 260
-70 22 -75 25 -127 95 -32 42 -83 93 -119 120 -41 30 -67 57 -71 74 -4 15 -10
169 -14 342 -5 218 -11 321 -19 335 -10 17 -11 9 -7 -45 l5 -65 -15 70 c-8 39
-20 93 -25 120 -15 73 -49 140 -118 230 -70 93 -134 145 -215 175 -65 24 -155
29 -168 8 -9 -15 -12 -12 -25 27 -29 88 -246 125 -424 71z m-625 -1665 c5 -9
-71 -61 -89 -61 -4 0 7 16 25 35 34 35 53 43 64 26z m2426 -758 c-12 -20 -14
-14 -5 12 4 9 9 14 11 11 3 -2 0 -13 -6 -23z m-36 -422 c16 -32 11 -61 -11
-61 -10 0 -14 13 -14 45 0 25 2 45 5 45 2 0 11 -13 20 -29z m-650 -600 c3 -5
1 -12 -4 -15 -5 -3 -11 1 -15 9 -6 16 9 21 19 6z m295 -7615 c0 -3 -4 -8 -10
-11 -5 -3 -10 -1 -10 4 0 6 5 11 10 11 6 0 10 -2 10 -4z m-694 -22 c-5 -12 -2
-15 9 -10 9 3 13 2 10 -4 -11 -18 -34 -11 -32 10 1 11 5 20 10 20 5 0 6 -7 3
-16z m649 6 c3 -5 -1 -10 -9 -10 -9 0 -16 5 -16 10 0 6 4 10 9 10 6 0 13 -4
16 -10z m-687 -55 c-3 -3 -9 2 -12 12 -6 14 -5 15 5 6 7 -7 10 -15 7 -18z
m-18 -6 c0 -5 -4 -9 -10 -9 -5 0 -10 7 -10 16 0 8 5 12 10 9 6 -3 10 -10 10
-16z m400 11 c0 -5 -2 -10 -4 -10 -3 0 -8 5 -11 10 -3 6 -1 10 4 10 6 0 11 -4
11 -10z m-100 -190 c0 -5 -5 -10 -11 -10 -5 0 -7 5 -4 10 3 6 8 10 11 10 2 0
4 -4 4 -10z m-1070 -21 c-7 -11 -14 -18 -17 -15 -3 3 0 12 7 21 18 21 23 19
10 -6z m-303 -53 c-4 -10 -1 -13 9 -9 7 3 14 0 14 -6 0 -6 -9 -11 -20 -11 -11
0 -20 2 -20 4 0 10 13 36 17 36 3 0 3 -7 0 -14z m-189 -64 c6 -18 -15 -14 -22
4 -4 10 -1 14 6 12 6 -2 14 -10 16 -16z m-405 -134 c-4 -8 -33 -11 -33 -4 0 2
3 11 6 20 5 12 9 13 19 3 7 -7 11 -15 8 -19z m-122 -31 c-16 -16 -25 -1 -10
16 8 8 16 11 18 5 2 -5 -2 -15 -8 -21z m-51 -8 c0 -5 -4 -9 -10 -9 -5 0 -10 7
-10 16 0 8 5 12 10 9 6 -3 10 -10 10 -16z"/>
<path d="M5906 1091 c-4 -5 3 -7 14 -4 23 6 26 13 6 13 -8 0 -17 -4 -20 -9z"/>
</g>
</svg>
